# xmcd CD database file
#
# Track frame offsets:
#	150
#	21552
#	41717
#	62565
#	83250
#	104307
#	124690
#	145280
#	165282
#	185227
#
# Disc length: 2756 seconds
#
# Revision: 0
# Processed by: cddbd v1.4PL0 Copyright (c) Steve Scherf et al.
# Submitted via: NeoAudio 9.9.9
#
DISCID=810ac20a
DTITLE=La Banda Gorda - Calienta Esto
DYEAR=1900
DGENRE=Merengue
TTITLE0=Pa Lo Que Me Tiran
TTITLE1=Rumba Y Gozadera
TTITLE2=Como Quiera Dicen
TTITLE3=Llora Mi Corazon
TTITLE4=El Que Quiera Bailar Conmigo
TTITLE5=Calienta Esto
TTITLE6=Vaya Donde Vayas
TTITLE7=Coge Ahi
TTITLE8=Te Recordaré
TTITLE9=Dominicano
EXTD=
EXTT0=
EXTT1=
EXTT2=
EXTT3=
EXTT4=
EXTT5=
EXTT6=
EXTT7=
EXTT8=
EXTT9=
PLAYORDER=
